# xmcd CD database file
#
# Track frame offsets:
#	150
#	15427
#	39516
#	57748
#	72095
#	78023
#	94083
#	114247
#	124658
#	143942
#	162241
#	166137
#	187456
#
# Disc length: 2904 seconds
#
# Revision: 0
# Processed by: cddbd v1.5.1PL0 Copyright (c) Steve Scherf et al.
# Submitted via: CDex 1.51
#
DISCID=a90b560d
DTITLE=EeL - Little Prince
DYEAR=2004
DGENRE=JPop
TTITLE0=Little Prince
TTITLE1=no heart
TTITLE2=If it's fake
TTITLE3=a worm
TTITLE4=inter
TTITLE5=Noel
TTITLE6=a beloved child
TTITLE7=pig pig pig
TTITLE8=non com-pas men-tis
TTITLE9=I'm crying on a straight road
TTITLE10=hasami
TTITLE11=Can I be your pet?
TTITLE12=I'm crying on a straight road (world's end girl friend remix)
EXTD=YEAR: 2004
EXTT0=
EXTT1=
EXTT2=
EXTT3=
EXTT4=
EXTT5=
EXTT6=
EXTT7=
EXTT8=
EXTT9=
EXTT10=
EXTT11=
EXTT12=
PLAYORDER=
